<svg fill="#000000" xmlns="http://www.w3.org/2000/svg"  viewBox="0 0 64 64" width="64px" height="64px"><path d="M 13 6 C 9.1482075 6 6 9.1482075 6 13 L 6 51 C 6 54.851793 9.1482075 58 13 58 L 51 58 C 54.851793 58 58 54.851793 58 51 L 58 13 C 58 9.1482075 54.851793 6 51 6 L 13 6 z M 13 8 L 51 8 C 53.768207 8 56 10.231793 56 13 L 56 51 C 56 53.768207 53.768207 56 51 56 L 13 56 C 10.231793 56 8 53.768207 8 51 L 8 13 C 8 10.231793 10.231793 8 13 8 z M 23.5 12 C 17.15977 12 12 17.15977 12 23.5 C 12 27.608786 14.162194 31.21492 17.417969 33.244141 C 17.150764 33.944527 17 34.702743 17 35.5 C 17 39.078268 19.921732 42 23.5 42 L 43.5 42 C 48.18248 42 52 38.18248 52 33.5 C 52 28.81752 48.18248 25 43.5 25 C 43.022429 25 42.584449 25.106809 42.134766 25.183594 C 40.75686 21.90275 37.748939 19.47818 34.095703 19.068359 C 32.363681 14.91565 28.270402 12 23.5 12 z M 23.5 14 C 27.153642 14 30.30628 16.05394 31.892578 19.064453 C 26.900025 19.617938 23 23.863042 23 29 C 23 29.03434 23.005459 29.065469 23.005859 29.099609 C 21.161486 29.246989 19.52414 30.149765 18.425781 31.5 C 15.768601 29.82004 14 26.88579 14 23.5 C 14 18.24023 18.24023 14 23.5 14 z M 32.664062 21.017578 C 32.881631 21.808047 33 22.638018 33 23.5 A 1.0001 1.0001 0 1 0 35 23.5 C 35 22.711411 34.91185 21.943115 34.757812 21.197266 C 37.537578 21.820084 39.763124 23.884499 40.619141 26.5625 A 1.0001 1.0001 0 0 0 41.828125 27.226562 C 42.371369 27.082814 42.927808 27 43.5 27 C 47.10152 27 50 29.89848 50 33.5 C 50 37.10152 47.10152 40 43.5 40 L 23.5 40 C 21.002268 40 19 37.997732 19 35.5 C 19 34.769403 19.187274 34.090527 19.492188 33.482422 A 1.0001 1.0001 0 0 0 19.675781 33.142578 C 20.465478 31.858151 21.871691 31 23.5 31 C 23.654912 31 23.808955 31.007797 23.960938 31.023438 A 1.0001 1.0001 0 0 0 25.056641 29.914062 C 25.021045 29.604648 25 29.302023 25 29 C 25 24.682751 28.391511 21.193908 32.664062 21.017578 z M 33.023438 26.988281 A 1.0001 1.0001 0 0 0 32.085938 27.570312 C 31.6311 28.527914 31.019593 29.398604 30.285156 30.148438 A 1.0001 1.0001 0 1 0 31.714844 31.546875 C 32.602407 30.640707 33.341416 29.590086 33.892578 28.429688 A 1.0001 1.0001 0 0 0 33.023438 26.988281 z M 12 48 C 11.448 48 11 48.448 11 49 L 11 51 C 11 51.552 11.448 52 12 52 C 12.552 52 13 51.552 13 51 L 13 49 C 13 48.448 12.552 48 12 48 z M 17 48 C 16.448 48 16 48.448 16 49 L 16 51 C 16 51.552 16.448 52 17 52 C 17.552 52 18 51.552 18 51 L 18 49 C 18 48.448 17.552 48 17 48 z M 22 48 C 21.448 48 21 48.448 21 49 L 21 51 C 21 51.552 21.448 52 22 52 C 22.552 52 23 51.552 23 51 L 23 49 C 23 48.448 22.552 48 22 48 z M 27 48 C 26.448 48 26 48.448 26 49 L 26 51 C 26 51.552 26.448 52 27 52 C 27.552 52 28 51.552 28 51 L 28 49 C 28 48.448 27.552 48 27 48 z M 32 48 C 31.448 48 31 48.448 31 49 L 31 51 C 31 51.552 31.448 52 32 52 C 32.552 52 33 51.552 33 51 L 33 49 C 33 48.448 32.552 48 32 48 z M 37 48 C 36.448 48 36 48.448 36 49 L 36 51 C 36 51.552 36.448 52 37 52 C 37.552 52 38 51.552 38 51 L 38 49 C 38 48.448 37.552 48 37 48 z M 42 48 C 41.448 48 41 48.448 41 49 L 41 51 C 41 51.552 41.448 52 42 52 C 42.552 52 43 51.552 43 51 L 43 49 C 43 48.448 42.552 48 42 48 z M 47 48 C 46.448 48 46 48.448 46 49 L 46 51 C 46 51.552 46.448 52 47 52 C 47.552 52 48 51.552 48 51 L 48 49 C 48 48.448 47.552 48 47 48 z M 52 48 C 51.448 48 51 48.448 51 49 L 51 51 C 51 51.552 51.448 52 52 52 C 52.552 52 53 51.552 53 51 L 53 49 C 53 48.448 52.552 48 52 48 z"/></svg>